Coordinates
nRows=116
nColumns=2
inDegrees=yes
endheader
time	ankle_angle_r	
2.9375	 18.753052	
3	 18.734159	
3.0625	 18.726349	
3.125	 18.786839	
3.1875	 18.741970	
3.25	 18.779209	
3.3125	 18.763769	
3.375	 18.680391	
3.4375	 18.747602	
3.5	 18.722534	
3.5625	 18.722534	
3.625	 18.798828	
3.6875	 18.768311	
3.75	 18.749418	
3.8125	 18.798828	
3.875	 18.722534	
3.9375	 18.722534	
4	 18.748692	
4.0625	 18.713997	
4.125	 18.805731	
4.1875	 18.799917	
4.25	 18.783569	
4.3125	 18.821535	
4.375	 18.768311	
4.4375	 18.768673	
4.5	 18.782843	
4.5625	 18.761227	
4.625	 18.814087	
4.6875	 18.820808	
4.75	 18.807547	
4.8125	 18.829346	
4.875	 18.783569	
4.9375	 18.743788	
5	 18.758865	
5.0625	 18.722534	
5.125	 18.747602	
5.1875	 18.773579	
5.25	 18.758139	
5.3125	 18.773214	
5.375	 18.778847	
5.4375	 18.722534	
5.5	 18.742153	
5.5625	 18.726711	
5.625	 18.714542	
5.6875	 18.802643	
5.75	 18.745060	
5.8125	 18.776667	
5.875	 18.783569	
5.9375	 18.722534	
6	 18.798828	
6.0625	 18.758501	
6.125	 18.740335	
6.1875	 18.870399	
6.25	 18.774851	
6.3125	 18.810091	
6.375	 18.856230	
6.4375	 18.739428	
6.5	 18.721081	
6.5625	 18.754324	
6.625	 18.737793	
6.6875	 18.781754	
6.75	 18.783569	
6.8125	 18.753052	
6.875	 18.783569	
6.9375	 18.753052	
7	 18.768311	
7.0625	 18.737793	
7.125	 18.752325	
7.1875	 18.738882	
7.25	 18.783569	
7.3125	 18.751236	
7.375	 18.783569	
7.4375	 18.782297	
7.5	 18.710182	
7.5625	 18.766676	
7.625	 18.722534	
7.6875	 18.751053	
7.75	 18.811907	
7.8125	 18.768311	
7.875	 18.770853	
7.9375	 18.798828	
8	 18.728348	
8.0625	 18.786657	
8.125	 18.780300	
8.1875	 18.753052	
8.25	 18.814087	
8.3125	 18.791199	
8.375	 18.795559	
8.4375	 18.829346	
8.5	 18.742153	
8.5625	 18.766676	
8.625	 18.794106	
8.6875	 18.737793	
8.75	 18.783569	
8.8125	 18.778301	
8.875	 18.762861	
8.9375	 18.773941	
9	 18.731979	
9.0625	 18.713270	
9.125	 18.746876	
9.1875	 18.737793	
9.25	 18.781389	
9.3125	 18.770126	
9.375	 18.744696	
9.4375	 18.790653	
9.5	 18.761044	
9.5625	 18.722534	
9.625	 18.760681	
9.6875	 18.745241	
9.75	 18.730526	
9.8125	 18.790653	
9.875	 18.759954	
9.9375	 18.800644	
10	 18.790110	
10.0625	 18.753052	
10.125	 18.762135	
